<?xml version="1.0" encoding="utf-8"?>
<!-- Generator: Adobe Illustrator 26.1.0, SVG Export Plug-In . SVG Version: 6.00 Build 0)  -->
<svg version="1.1" xmlns="http://www.w3.org/2000/svg" xmlns:xlink="http://www.w3.org/1999/xlink" x="0px" y="0px"
	 viewBox="0 0 400 400" style="enable-background:new 0 0 400 400;" xml:space="preserve">
<g id="Layer_1">
	
		<image style="display:none;overflow:visible;" width="28" height="31" xlink:href="3F4C8301.jpg"  transform="matrix(10.6961 0 0 10.6961 45.7415 34.3947)">
	</image>
	<g id="Layer_3">
		<path d="M342.2,163.4h-37.6V231H237v-67.6h-67.6V231h-67.6v-67.6H64.2h-30v30V231v127.8c0,16.6,13.4,30,30,30h278.1
			c16.6,0,30-13.4,30-30V231v-37.6v-30H342.2z"/>
	</g>
</g>
<g id="Layer_2">
	<path d="M82.5,163l-48.3,0l0-28c0-16.6,13.4-30,30-30l18.3,0L82.5,163z"/>
	<rect x="130.8" y="105" width="48.3" height="58"/>
	<path d="M372.2,163l-48.3,0v-58l18.3,0c16.6,0,30,13.4,30,30L372.2,163z"/>
	<rect x="227.3" y="105" width="48.3" height="58"/>
</g>
</svg>
