<?xml version="1.0" encoding="utf-8"?>
<!-- Generator: Adobe Illustrator 26.1.0, SVG Export Plug-In . SVG Version: 6.00 Build 0)  -->
<svg version="1.1" xmlns="http://www.w3.org/2000/svg" xmlns:xlink="http://www.w3.org/1999/xlink" x="0px" y="0px"
	 viewBox="0 0 400 400" style="enable-background:new 0 0 400 400;" xml:space="preserve">
<g id="Layer_1">
	
		<image style="display:none;overflow:visible;" width="28" height="31" xlink:href="799BD93.jpg"  transform="matrix(10.6961 0 0 10.6961 45.7415 34.3947)">
	</image>
	<g id="Layer_3">
		<path d="M342.2,163.4h-37.6V231H237v-67.6h-67.6V231h-67.6v-67.6H64.2h-30v30V231v127.8c0,16.6,13.4,30,30,30h278.1
			c16.6,0,30-13.4,30-30V231v-37.6v-30H342.2z"/>
	</g>
</g>
<g id="Layer_2">
	<path d="M80.8,150.5L34.2,163l-7.2-27c-4.3-16,5.2-32.5,21.2-36.7l17.7-4.7L80.8,150.5z"/>
	<rect x="119.1" y="74.7" transform="matrix(0.9659 -0.2588 0.2588 0.9659 -21.9677 40.618)" width="48.3" height="58"/>
	<path d="M360.7,75.5L314.1,88l-15-56l17.7-4.7c16-4.3,32.5,5.2,36.7,21.2L360.7,75.5z"/>
	<rect x="212.4" y="49.7" transform="matrix(0.9659 -0.2588 0.2588 0.9659 -12.3185 63.9133)" width="48.3" height="58"/>
</g>
</svg>
