<?xml version="1.0" encoding="utf-8"?>
<!-- Generator: Adobe Illustrator 26.0.1, SVG Export Plug-In . SVG Version: 6.00 Build 0)  -->
<svg version="1.1" id="Layer_1" xmlns="http://www.w3.org/2000/svg" xmlns:xlink="http://www.w3.org/1999/xlink" x="0px" y="0px"
	 viewBox="0 0 320 320" style="enable-background:new 0 0 320 320;" xml:space="preserve">
<style type="text/css">
	.st0{fill:#302E31;}
	.st1{fill:#FFFFFF;}
	.st2{fill:#C4C2C4;}
</style>
<g>
	<circle class="st0" cx="160" cy="160" r="152.6"/>
	<path class="st1" d="M160,320C71.8,320,0,248.2,0,160C0,71.8,71.8,0,160,0c88.2,0,160,71.8,160,160C320,248.2,248.2,320,160,320z
		 M160,14.8C79.9,14.8,14.8,79.9,14.8,160S79.9,305.2,160,305.2S305.2,240.1,305.2,160S240.1,14.8,160,14.8z"/>
</g>
<path class="st2" d="M82.4,79.9c4.7-22.6,20-43.1,40.7-53.3c-3.6,3.6-7.9,6.4-11.3,10.4c-13.6,14.7-19.7,35.9-16,55.4
	c4.7,29.8,32.7,54.1,63.1,53.7c23.5,1.1,46.5-12.5,58-32.9c24.6,0.8,48.6,13.6,62.7,34c7.2,10.7,12.8,23.1,13.2,36.1
	c-4.6-17.3-16-32.6-31.7-41.3c-15.1-8.5-33.7-10.7-50.3-5.7c-20.8,6-38,23-43.9,43.9c-5,16.7-2.9,35,5,50.3
	c-11,19.1-30.9,32.7-52.4,36.7c-16.6,3.5-34,0.8-49.4-6.2c13.8,4,28.8,4.7,42.5-0.2c18.4-6.1,33.6-20.9,40.3-39.1
	c7.4-19.9,4.6-43.5-7.9-60.5c-9.3-13.4-24-22.9-40-26.3c-5.1-0.9-10.2-1.3-15.3-1.8c-8.1-16.4-11.1-35.5-7-53.3L82.4,79.9z"/>
</svg>
