<?xml version="1.0" encoding="utf-8"?>
<!-- Generator: Adobe Illustrator 26.0.1, SVG Export Plug-In . SVG Version: 6.00 Build 0)  -->
<svg version="1.1" id="katman_1" xmlns="http://www.w3.org/2000/svg" xmlns:xlink="http://www.w3.org/1999/xlink" x="0px" y="0px"
	 viewBox="0 0 320 320" style="enable-background:new 0 0 320 320;" xml:space="preserve">
<style type="text/css">
	.st0{fill:#4C74B9;}
	.st1{fill:#E8326A;}
</style>
<path class="st0" d="M10.1,160.1h60c5.5,0,10-4.5,10-10v-60c0-5.5,4.5-10,10-10h220c5.5,0,10-4.5,10-10V10c0-5.5-4.5-10-10-10H80
	C35.9,0,0,35.8,0,80v70C0,155.6,4.5,160.1,10.1,160.1z"/>
<path class="st1" d="M309.9,160.1h-60c-5.5,0-10,4.5-10,10v60c0,5.5-4.5,10-10,10H10c-5.5,0-10,4.5-10,10v60c0,5.5,4.5,10,10,10h230
	c44.1,0,80-35.8,80-80v-70C320,164.6,315.5,160.1,309.9,160.1z"/>
</svg>
