<?xml version="1.0" encoding="iso-8859-1"?>
<!-- Uploaded to: SVG Repo, www.svgrepo.com, Generator: SVG Repo Mixer Tools -->
<!DOCTYPE svg PUBLIC "-//W3C//DTD SVG 1.1//EN" "http://www.w3.org/Graphics/SVG/1.1/DTD/svg11.dtd">
<svg fill="#000000" height="800px" width="800px" version="1.1" id="Capa_1" xmlns="http://www.w3.org/2000/svg" xmlns:xlink="http://www.w3.org/1999/xlink" 
	 viewBox="0 0 422.313 422.313" xml:space="preserve">
<g>
	<path d="M384.329,101.17H268.3c-3.16-6.042-7.208-11.448-11.937-16.095l72.272-72.272c2.929-2.929,2.929-7.677,0-10.606
		c-2.929-2.929-7.678-2.929-10.606,0l-73.617,73.617c-9.831-5.911-21.264-9.218-33.254-9.218c-11.987,0-23.419,3.308-33.252,9.221
		l-73.62-73.62c-2.929-2.929-7.678-2.929-10.606,0c-2.929,2.929-2.929,7.677,0,10.606l72.275,72.275
		c-4.729,4.646-8.778,10.05-11.939,16.091H37.985c-15.752,0-28.568,12.816-28.568,28.568v240.545
		c0,15.752,12.816,28.568,28.568,28.568h61.493v15.962c0,4.142,3.358,7.5,7.5,7.5h208.358c4.142,0,7.5-3.358,7.5-7.5v-15.962h61.493
		c15.752,0,28.568-12.816,28.568-28.568V129.738C412.897,113.985,400.081,101.17,384.329,101.17z M211.157,81.596
		c15.735,0,30.22,7.414,39.438,19.573h-78.87C180.946,89.01,195.43,81.596,211.157,81.596z M307.836,407.313H114.478v-8.462h193.358
		V407.313z M397.897,370.283c0,7.481-6.087,13.568-13.568,13.568H37.985c-7.481,0-13.568-6.087-13.568-13.568V129.738
		c0-7.482,6.087-13.568,13.568-13.568h346.344c7.481,0,13.568,6.087,13.568,13.568V370.283z"/>
	<path d="M377.844,128.723H44.469c-4.142,0-7.5,3.358-7.5,7.5v227.575c0,4.142,3.358,7.5,7.5,7.5h333.375c4.142,0,7.5-3.358,7.5-7.5
		V136.223C385.344,132.081,381.986,128.723,377.844,128.723z M370.344,356.298H51.969V143.723h318.375V356.298z"/>
	<path d="M349.9,336.255c4.142,0,7.5-3.358,7.5-7.5V186.12c0-4.142-3.358-7.5-7.5-7.5s-7.5,3.358-7.5,7.5v142.634
		C342.4,332.897,345.758,336.255,349.9,336.255z"/>
	<path d="M342.97,167.596c1.189,2.817,4.042,4.704,7.113,4.625c3.054-0.078,5.857-2.088,6.875-4.972
		c1.021-2.894,0.167-6.201-2.163-8.204c-2.53-2.175-6.278-2.406-9.056-0.559C342.76,160.467,341.677,164.295,342.97,167.596
		C343.16,168.046,342.79,167.136,342.97,167.596z"/>
</g>
</svg>